<svg width="160" height="26" viewBox="0 0 160 20" fill="none" xmlns="http://www.w3.org/2000/svg">
<g clip-path="url(#clip0_105_59144)">
<mask id="mask0_105_59144" style="mask-type:luminance" maskUnits="userSpaceOnUse" x="0" y="0" width="160" height="20">
<path d="M159.468 0H0V20H159.468V0Z" fill="white"/>
</mask>
<g mask="url(#mask0_105_59144)">
<mask id="mask1_105_59144" style="mask-type:luminance" maskUnits="userSpaceOnUse" x="-1" y="0" width="161" height="21">
<path d="M159.373 0.0679932H-0.0957031V20.068H159.373V0.0679932Z" fill="white"/>
</mask>
<g mask="url(#mask1_105_59144)">
<mask id="mask2_105_59144" style="mask-type:luminance" maskUnits="userSpaceOnUse" x="0" y="0" width="160" height="21">
<path d="M159.11 0H0.166016V20.1359H159.11V0Z" fill="white"/>
</mask>
<g mask="url(#mask2_105_59144)">
<mask id="mask3_105_59144" style="mask-type:luminance" maskUnits="userSpaceOnUse" x="0" y="0" width="160" height="21">
<path d="M159.11 0H0.166016V20.1359H159.11V0Z" fill="white"/>
</mask>
<g mask="url(#mask3_105_59144)">
<mask id="mask4_105_59144" style="mask-type:luminance" maskUnits="userSpaceOnUse" x="0" y="0" width="160" height="21">
<path d="M159.11 0H0.166016V20.1359H159.11V0Z" fill="white"/>
</mask>
<g mask="url(#mask4_105_59144)">
<mask id="mask5_105_59144" style="mask-type:luminance" maskUnits="userSpaceOnUse" x="0" y="0" width="160" height="21">
<path d="M159.11 0H0.166016V20.1359H159.11V0Z" fill="white"/>
</mask>
<g mask="url(#mask5_105_59144)">
<mask id="mask6_105_59144" style="mask-type:luminance" maskUnits="userSpaceOnUse" x="0" y="0" width="160" height="21">
<path d="M159.11 0H0.166016V20.1359H159.11V0Z" fill="white"/>
</mask>
<g mask="url(#mask6_105_59144)">
<mask id="mask7_105_59144" style="mask-type:luminance" maskUnits="userSpaceOnUse" x="0" y="0" width="160" height="21">
<path d="M159.11 0H0.166016V20.1359H159.11V0Z" fill="white"/>
</mask>
<g mask="url(#mask7_105_59144)">
<path d="M2.0993 13.9075V0.298627H3.55652V13.7795C3.55652 15.5712 3.30651 16.9648 2.80648 17.9603C2.30646 18.9557 1.54213 19.6809 0.513508 20.1359L0.449219 20.0293C1.02068 19.6311 1.43927 18.9599 1.70499 18.0157C1.96787 17.0686 2.0993 15.6992 2.0993 13.9075ZM8.05676 7.76426C8.05676 6.66932 8.25248 5.64832 8.64392 4.70123C9.03824 3.75701 9.58824 2.93223 10.294 2.2269C11.0026 1.52442 11.8312 0.976937 12.7798 0.584453C13.7313 0.194818 14.7571 0 15.8572 0C16.9572 0 17.9815 0.194818 18.9302 0.584453C19.8817 0.976937 20.7103 1.52442 21.416 2.2269C22.1246 2.93223 22.6746 3.75701 23.0661 4.70123C23.4604 5.64832 23.6576 6.66932 23.6576 7.76426C23.6576 8.85926 23.4604 9.87884 23.0661 10.8231C22.6746 11.7702 22.1246 12.5949 21.416 13.2974C20.7103 14.0027 19.8817 14.5502 18.9302 14.9398C17.9815 15.3323 16.9572 15.5286 15.8572 15.5286C14.7571 15.5286 13.7313 15.3323 12.7798 14.9398C11.8312 14.5502 11.0026 14.0027 10.294 13.2974C9.58824 12.5949 9.03824 11.7702 8.64392 10.8231C8.25248 9.87884 8.05676 8.85926 8.05676 7.76426ZM9.68541 7.76426C9.68541 9.21474 9.94258 10.4832 10.4569 11.5696C10.9712 12.6589 11.6926 13.505 12.6213 14.1079C13.5499 14.7137 14.6285 15.0166 15.8572 15.0166C17.0858 15.0166 18.1644 14.7137 19.093 14.1079C20.0216 13.505 20.7431 12.6561 21.2575 11.5611C21.7717 10.4662 22.0289 9.20053 22.0289 7.76426C22.0289 6.32805 21.7717 5.06527 21.2575 3.976C20.7431 2.88957 20.0216 2.04062 19.093 1.42914C18.1644 0.817668 17.0858 0.511931 15.8572 0.511931C14.6285 0.511931 13.5527 0.8134 12.6298 1.41634C11.7098 2.02213 10.9883 2.86824 10.4654 3.95467C9.9454 5.04394 9.68541 6.31379 9.68541 7.76426ZM27.9435 9.25742V0.298627H29.4007V9.30011C29.4007 11.0207 29.825 12.3603 30.6736 13.3187C31.5251 14.2801 32.7223 14.7607 34.2652 14.7607C35.2367 14.7607 36.0825 14.5715 36.8025 14.1933C37.5254 13.8179 38.0826 13.296 38.474 12.6276C38.8683 11.9593 39.0512 11.1914 39.0226 10.3239L38.6583 0.298627H40.1156L39.7512 10.3239C39.6941 12.0304 39.1826 13.3244 38.2169 14.2061C37.2539 15.0877 35.8796 15.5286 34.0938 15.5286C32.1651 15.5286 30.6579 14.9697 29.5721 13.852C28.4864 12.7371 27.9435 11.2056 27.9435 9.25742ZM45.2544 15.2299V0.298627H48.126C49.6403 0.298627 50.8161 0.615737 51.6533 1.24996C52.4876 1.88135 52.9048 2.76585 52.9048 3.90347C52.9048 4.78513 52.6448 5.51747 52.1247 6.10053C51.6018 6.68353 50.8475 7.07458 49.8617 7.27368V7.40168C50.8047 7.58653 51.5761 8.02737 52.1761 8.72416C52.7762 9.42095 53.2265 10.2813 53.5263 11.3052C53.7979 12.2437 54.0663 12.9717 54.3321 13.4894C54.5947 14.0098 54.8876 14.3838 55.2108 14.6114C55.5308 14.8389 55.9119 15.0024 56.3547 15.1019V15.2299H55.4766C54.8477 15.2299 54.3305 15.1162 53.9249 14.8887C53.5162 14.6612 53.169 14.2772 52.8833 13.7368C52.5976 13.1964 52.3262 12.4499 52.069 11.4971C51.6547 10.0324 51.1047 8.99437 50.4189 8.38289C49.7331 7.77142 48.8974 7.46568 47.9116 7.46568H47.7831V7.08174H47.9116C50.2118 7.08174 51.3618 6.02942 51.3618 3.92481C51.3618 1.84864 50.2832 0.810558 48.126 0.810558H46.7116V15.2299H45.2544ZM60.1479 15.2299H58.6909L59.2267 0H59.4835L70.263 12.9689H70.3911L69.9201 0.298627H71.3772L70.8413 15.5286H70.5841L59.8051 2.55965H59.6764L60.1479 15.2299ZM83.2278 15.2299H76.6274V0.298627H83.1635V1.34382L79.4133 0.853216C78.7563 0.767895 78.313 0.725237 78.0844 0.725237V7.231C78.2704 7.231 78.7132 7.20968 79.4133 7.16705L82.928 6.95374V7.93495L79.4133 7.72163C78.7132 7.67895 78.2704 7.65763 78.0844 7.65763V14.8033C78.3417 14.8033 78.7919 14.7607 79.4346 14.6754L83.2278 14.1847V15.2299ZM92.4855 15.2299H90.9423V8.91616L85.6278 0.298627H87.2565L92.0352 8.10558H92.1639L95.9783 0.298627H97.6071L92.4855 8.61753V15.2299Z" fill="#444FAE"/>
<path d="M109.651 15.2299H106.18V0.298627H109.159C110.701 0.298627 111.901 0.618584 112.758 1.2585C113.616 1.89841 114.044 2.78718 114.044 3.92481C114.044 4.76381 113.794 5.47768 113.294 6.06637C112.794 6.65795 112.094 7.06037 111.194 7.27368V7.40168C112.423 7.55811 113.383 7.98042 114.074 8.66868C114.769 9.35979 115.116 10.2315 115.116 11.2838C115.116 12.521 114.637 13.4879 113.68 14.1847C112.723 14.8815 111.38 15.2299 109.651 15.2299ZM109.18 0.810558H107.637V7.20968H109.159C111.416 7.20968 112.544 6.14316 112.544 4.01013C112.544 1.87708 111.422 0.810558 109.18 0.810558ZM109.651 7.72163H107.637V14.718H109.651C112.266 14.718 113.573 13.5519 113.573 11.2198C113.573 8.88768 112.266 7.72163 109.651 7.72163ZM120.859 15.2299H119.402V0.298627H120.859V15.2299ZM131.312 15.2299H129.855V0.725237C129.641 0.725237 129.198 0.767895 128.527 0.853216L124.326 1.38648V0.298627H136.841V1.38648L132.641 0.853216C131.969 0.767895 131.527 0.725237 131.312 0.725237V15.2299ZM146.913 15.2299H140.313V0.298627H146.849V1.34382L143.099 0.853216C142.441 0.767895 141.998 0.725237 141.77 0.725237V7.231C141.956 7.231 142.399 7.20968 143.099 7.16705L146.613 6.95374V7.93495L143.099 7.72163C142.399 7.67895 141.956 7.65763 141.77 7.65763V14.8033C142.027 14.8033 142.477 14.7607 143.12 14.6754L146.913 14.1847V15.2299ZM150.106 14.7607L150.234 13.4808H150.363C150.921 13.9643 151.549 14.3412 152.249 14.6114C152.949 14.8815 153.642 15.0166 154.328 15.0166C155.299 15.0166 156.085 14.7493 156.685 14.2146C157.285 13.6828 157.585 12.9689 157.585 12.0731C157.585 11.5753 157.474 11.1132 157.251 10.6866C157.031 10.2599 156.666 9.82621 156.158 9.38542C155.652 8.94458 154.956 8.46821 154.071 7.95626C153.456 7.60074 152.87 7.22674 152.313 6.83426C151.756 6.44463 151.299 5.98958 150.942 5.46911C150.585 4.95151 150.406 4.33008 150.406 3.60485C150.406 2.52411 150.799 1.6524 151.585 0.989732C152.371 0.329911 153.406 0 154.692 0C155.264 0 155.878 0.0611474 156.535 0.183442C157.192 0.302893 157.699 0.45505 158.056 0.639916L157.95 1.83442H157.821C157.007 0.952763 155.964 0.511932 154.692 0.511932C153.778 0.511932 153.042 0.7423 152.485 1.20304C151.927 1.66662 151.649 2.28947 151.649 3.07158C151.649 3.65462 151.802 4.15517 152.108 4.57325C152.416 4.99417 152.814 5.371 153.299 5.70379C153.785 6.03937 154.306 6.36358 154.863 6.67642C155.506 7.04616 156.131 7.43721 156.736 7.84963C157.345 8.262 157.845 8.75542 158.237 9.32995C158.631 9.90726 158.828 10.6297 158.828 11.4971C158.828 12.2935 158.642 12.9931 158.271 13.5961C157.9 14.2018 157.374 14.6754 156.693 15.0166C156.016 15.3579 155.228 15.5286 154.328 15.5286C153.757 15.5286 153.085 15.4575 152.313 15.3153C151.542 15.1731 150.806 14.9882 150.106 14.7607Z" fill="#87C0CD"/>
</g>
</g>
</g>
</g>
</g>
</g>
</g>
</g>
<mask id="mask8_105_59144" style="mask-type:luminance" maskUnits="userSpaceOnUse" x="0" y="0" width="160" height="20">
<path d="M160 0H0.53125V20H160V0Z" fill="white"/>
</mask>
<g mask="url(#mask8_105_59144)">
<mask id="mask9_105_59144" style="mask-type:luminance" maskUnits="userSpaceOnUse" x="0" y="0" width="160" height="21">
<path d="M159.904 0.0679932H0.435547V20.068H159.904V0.0679932Z" fill="white"/>
</mask>
<g mask="url(#mask9_105_59144)">
<mask id="mask10_105_59144" style="mask-type:luminance" maskUnits="userSpaceOnUse" x="0" y="0" width="160" height="21">
<path d="M159.641 0H0.697266V20.1359H159.641V0Z" fill="white"/>
</mask>
<g mask="url(#mask10_105_59144)">
<mask id="mask11_105_59144" style="mask-type:luminance" maskUnits="userSpaceOnUse" x="0" y="0" width="160" height="21">
<path d="M159.641 0H0.697266V20.1359H159.641V0Z" fill="white"/>
</mask>
<g mask="url(#mask11_105_59144)">
<mask id="mask12_105_59144" style="mask-type:luminance" maskUnits="userSpaceOnUse" x="0" y="0" width="160" height="21">
<path d="M159.641 0H0.697266V20.1359H159.641V0Z" fill="white"/>
</mask>
<g mask="url(#mask12_105_59144)">
<mask id="mask13_105_59144" style="mask-type:luminance" maskUnits="userSpaceOnUse" x="0" y="0" width="160" height="21">
<path d="M159.641 0H0.697266V20.1359H159.641V0Z" fill="white"/>
</mask>
<g mask="url(#mask13_105_59144)">
<mask id="mask14_105_59144" style="mask-type:luminance" maskUnits="userSpaceOnUse" x="0" y="0" width="160" height="21">
<path d="M159.641 0H0.697266V20.1359H159.641V0Z" fill="white"/>
</mask>
<g mask="url(#mask14_105_59144)">
<mask id="mask15_105_59144" style="mask-type:luminance" maskUnits="userSpaceOnUse" x="0" y="0" width="160" height="21">
<path d="M159.641 0H0.697266V20.1359H159.641V0Z" fill="white"/>
</mask>
<g mask="url(#mask15_105_59144)">
<path d="M2.63055 13.9075V0.298627H4.08777V13.7795C4.08777 15.5712 3.83776 16.9648 3.33773 17.9603C2.83771 18.9557 2.07338 19.6809 1.04476 20.1359L0.980469 20.0293C1.55193 19.6311 1.97052 18.9599 2.23625 18.0157C2.49912 17.0686 2.63055 15.6992 2.63055 13.9075ZM8.58801 7.76426C8.58801 6.66932 8.78373 5.64832 9.17517 4.70123C9.56949 3.75701 10.1195 2.93223 10.8252 2.2269C11.5339 1.52442 12.3625 0.976937 13.3111 0.584453C14.2626 0.194818 15.2883 0 16.3884 0C17.4885 0 18.5128 0.194818 19.4614 0.584453C20.4129 0.976937 21.2415 1.52442 21.9473 2.2269C22.6559 2.93223 23.2059 3.75701 23.5973 4.70123C23.9917 5.64832 24.1888 6.66932 24.1888 7.76426C24.1888 8.85926 23.9917 9.87884 23.5973 10.8231C23.2059 11.7702 22.6559 12.5949 21.9473 13.2974C21.2415 14.0027 20.4129 14.5502 19.4614 14.9398C18.5128 15.3323 17.4885 15.5286 16.3884 15.5286C15.2883 15.5286 14.2626 15.3323 13.3111 14.9398C12.3625 14.5502 11.5339 14.0027 10.8252 13.2974C10.1195 12.5949 9.56949 11.7702 9.17517 10.8231C8.78373 9.87884 8.58801 8.85926 8.58801 7.76426ZM10.2167 7.76426C10.2167 9.21474 10.4738 10.4832 10.9881 11.5696C11.5025 12.6589 12.2239 13.505 13.1525 14.1079C14.0811 14.7137 15.1598 15.0166 16.3884 15.0166C17.6171 15.0166 18.6957 14.7137 19.6243 14.1079C20.5529 13.505 21.2744 12.6561 21.7887 11.5611C22.303 10.4662 22.5602 9.20053 22.5602 7.76426C22.5602 6.32805 22.303 5.06527 21.7887 3.976C21.2744 2.88957 20.5529 2.04062 19.6243 1.42914C18.6957 0.817668 17.6171 0.511931 16.3884 0.511931C15.1598 0.511931 14.084 0.8134 13.1611 1.41634C12.2411 2.02213 11.5196 2.86824 10.9967 3.95467C10.4766 5.04394 10.2167 6.31379 10.2167 7.76426ZM28.4747 9.25742V0.298627H29.932V9.30011C29.932 11.0207 30.3562 12.3603 31.2049 13.3187C32.0563 14.2801 33.2536 14.7607 34.7965 14.7607C35.768 14.7607 36.6137 14.5715 37.3337 14.1933C38.0567 13.8179 38.6138 13.296 39.0053 12.6276C39.3996 11.9593 39.5825 11.1914 39.5539 10.3239L39.1896 0.298627H40.6468L40.2825 10.3239C40.2253 12.0304 39.7139 13.3244 38.7481 14.2061C37.7852 15.0877 36.4108 15.5286 34.6251 15.5286C32.6964 15.5286 31.1892 14.9697 30.1034 13.852C29.0176 12.7371 28.4747 11.2056 28.4747 9.25742ZM45.7856 15.2299V0.298627H48.6572C50.1716 0.298627 51.3473 0.615737 52.1845 1.24996C53.0188 1.88135 53.4361 2.76585 53.4361 3.90347C53.4361 4.78513 53.1762 5.51747 52.656 6.10053C52.1331 6.68353 51.3788 7.07458 50.393 7.27368V7.40168C51.3359 7.58653 52.1074 8.02737 52.7074 8.72416C53.3075 9.42095 53.7577 10.2813 54.0575 11.3052C54.3291 12.2437 54.5976 12.9717 54.8634 13.4894C55.1259 14.0098 55.4188 14.3838 55.742 14.6114C56.062 14.8389 56.4432 15.0024 56.8859 15.1019V15.2299H56.0078C55.379 15.2299 54.8618 15.1162 54.4562 14.8887C54.0474 14.6612 53.7003 14.2772 53.4143 13.7368C53.1289 13.1964 52.8574 12.4499 52.6002 11.4971C52.1859 10.0324 51.6359 8.99437 50.9502 8.38289C50.2644 7.77142 49.4287 7.46568 48.4429 7.46568H48.3143V7.08174H48.4429C50.743 7.08174 51.8931 6.02942 51.8931 3.92481C51.8931 1.84864 50.8145 0.810558 48.6572 0.810558H47.2428V15.2299H45.7856ZM60.6792 15.2299H59.2222L59.758 0H60.0147L70.7943 12.9689H70.9224L70.4514 0.298627H71.9084L71.3726 15.5286H71.1153L60.3363 2.55965H60.2077L60.6792 15.2299ZM83.759 15.2299H77.1586V0.298627H83.6947V1.34382L79.9446 0.853216C79.2875 0.767895 78.8442 0.725237 78.6157 0.725237V7.231C78.8017 7.231 79.2445 7.20968 79.9446 7.16705L83.4592 6.95374V7.93495L79.9446 7.72163C79.2445 7.67895 78.8017 7.65763 78.6157 7.65763V14.8033C78.8729 14.8033 79.3232 14.7607 79.9658 14.6754L83.759 14.1847V15.2299ZM93.0167 15.2299H91.4736V8.91616L86.159 0.298627H87.7877L92.5665 8.10558H92.6951L96.5096 0.298627H98.1383L93.0167 8.61753V15.2299Z" fill="#444FAE"/>
<path d="M110.183 15.2299H106.711V0.298627H109.69C111.232 0.298627 112.433 0.618584 113.29 1.2585C114.147 1.89841 114.575 2.78718 114.575 3.92481C114.575 4.76381 114.326 5.47768 113.825 6.06637C113.326 6.65795 112.626 7.06037 111.725 7.27368V7.40168C112.954 7.55811 113.914 7.98042 114.606 8.66868C115.3 9.35979 115.647 10.2315 115.647 11.2838C115.647 12.521 115.169 13.4879 114.211 14.1847C113.254 14.8815 111.911 15.2299 110.183 15.2299ZM109.711 0.810558H108.168V7.20968H109.69C111.947 7.20968 113.075 6.14316 113.075 4.01013C113.075 1.87708 111.954 0.810558 109.711 0.810558ZM110.183 7.72163H108.168V14.718H110.183C112.797 14.718 114.104 13.5519 114.104 11.2198C114.104 8.88768 112.797 7.72163 110.183 7.72163ZM121.39 15.2299H119.933V0.298627H121.39V15.2299ZM131.844 15.2299H130.386V0.725237C130.172 0.725237 129.729 0.767895 129.058 0.853216L124.857 1.38648V0.298627H137.372V1.38648L133.172 0.853216C132.501 0.767895 132.058 0.725237 131.844 0.725237V15.2299ZM147.444 15.2299H140.844V0.298627H147.38V1.34382L143.63 0.853216C142.972 0.767895 142.53 0.725237 142.301 0.725237V7.231C142.487 7.231 142.93 7.20968 143.63 7.16705L147.144 6.95374V7.93495L143.63 7.72163C142.93 7.67895 142.487 7.65763 142.301 7.65763V14.8033C142.558 14.8033 143.009 14.7607 143.651 14.6754L147.444 14.1847V15.2299ZM150.638 14.7607L150.766 13.4808H150.894C151.452 13.9643 152.08 14.3412 152.78 14.6114C153.48 14.8815 154.174 15.0166 154.859 15.0166C155.83 15.0166 156.616 14.7493 157.216 14.2146C157.816 13.6828 158.116 12.9689 158.116 12.0731C158.116 11.5753 158.005 11.1132 157.782 10.6866C157.562 10.2599 157.198 9.82621 156.689 9.38542C156.183 8.94458 155.488 8.46821 154.602 7.95626C153.987 7.60074 153.402 7.22674 152.845 6.83426C152.288 6.44463 151.83 5.98958 151.473 5.46911C151.116 4.95151 150.937 4.33008 150.937 3.60485C150.937 2.52411 151.33 1.6524 152.116 0.989732C152.902 0.329911 153.938 0 155.223 0C155.795 0 156.409 0.0611474 157.066 0.183442C157.723 0.302893 158.23 0.45505 158.588 0.639916L158.481 1.83442H158.352C157.538 0.952763 156.495 0.511932 155.223 0.511932C154.309 0.511932 153.573 0.7423 153.016 1.20304C152.459 1.66662 152.18 2.28947 152.18 3.07158C152.18 3.65462 152.333 4.15517 152.639 4.57325C152.948 4.99417 153.345 5.371 153.83 5.70379C154.316 6.03937 154.837 6.36358 155.395 6.67642C156.038 7.04616 156.662 7.43721 157.268 7.84963C157.876 8.262 158.377 8.75542 158.768 9.32995C159.162 9.90726 159.359 10.6297 159.359 11.4971C159.359 12.2935 159.173 12.9931 158.802 13.5961C158.431 14.2018 157.905 14.6754 157.225 15.0166C156.547 15.3579 155.759 15.5286 154.859 15.5286C154.288 15.5286 153.616 15.4575 152.845 15.3153C152.073 15.1731 151.338 14.9882 150.638 14.7607Z" fill="#87C0CD"/>
</g>
</g>
</g>
</g>
</g>
</g>
</g>
</g>
</g>
<defs>
<clipPath id="clip0_105_59144">
<rect width="160" height="20" fill="white"/>
</clipPath>
</defs>
</svg>