<svg width="300" height="38" viewBox="0 0 300 38" fill="none" xmlns="http://www.w3.org/2000/svg">
<g clip-path="url(#clip0_123_64253)">
<g clip-path="url(#clip1_123_64253)">
<g clip-path="url(#clip2_123_64253)">
<g clip-path="url(#clip3_123_64253)">
<g clip-path="url(#clip4_123_64253)">
<g clip-path="url(#clip5_123_64253)">
<g clip-path="url(#clip6_123_64253)">
<g clip-path="url(#clip7_123_64253)">
<path d="M3.93488 26.4242V0.567391H6.66717V26.181C6.66717 29.5853 6.19839 32.2332 5.26084 34.1245C4.3233 36.0158 2.89019 37.3937 0.961517 38.2583L0.840975 38.0557C1.91246 37.2991 2.69732 36.0239 3.19556 34.2298C3.68844 32.4304 3.93488 29.8285 3.93488 26.4242ZM15.1051 14.7521C15.1051 12.6717 15.4721 10.7318 16.206 8.93234C16.9454 7.13831 17.9767 5.57123 19.3 4.23111C20.6286 2.89639 22.1822 1.85618 23.9609 1.11046C25.7449 0.370154 27.6682 0 29.7308 0C31.7935 0 33.7141 0.370154 35.4928 1.11046C37.2768 1.85618 38.8304 2.89639 40.1537 4.23111C41.4823 5.57123 42.5136 7.13831 43.2476 8.93234C43.9869 10.7318 44.3566 12.6717 44.3566 14.7521C44.3566 16.8326 43.9869 18.7698 43.2476 20.5638C42.5136 22.3633 41.4823 23.9304 40.1537 25.2651C38.8304 26.6052 37.2768 27.6454 35.4928 28.3857C33.7141 29.1314 31.7935 29.5043 29.7308 29.5043C27.6682 29.5043 25.7449 29.1314 23.9609 28.3857C22.1822 27.6454 20.6286 26.6052 19.3 25.2651C17.9767 23.9304 16.9454 22.3633 16.206 20.5638C15.4721 18.7698 15.1051 16.8326 15.1051 14.7521ZM18.1588 14.7521C18.1588 17.508 18.641 19.9181 19.6053 21.9823C20.5697 24.0519 21.9224 25.6595 23.6636 26.8051C25.4047 27.9561 27.4272 28.5316 29.7308 28.5316C32.0345 28.5316 34.057 27.9561 35.7981 26.8051C37.5393 25.6595 38.892 24.0465 39.8564 21.9661C40.8207 19.8857 41.3029 17.481 41.3029 14.7521C41.3029 12.0233 40.8207 9.62402 39.8564 7.5544C38.892 5.49018 37.5393 3.87717 35.7981 2.71537C34.057 1.55357 32.0345 0.972669 29.7308 0.972669C27.4272 0.972669 25.4101 1.54546 23.6796 2.69105C21.9546 3.84204 20.6018 5.44965 19.6214 7.51387C18.6464 9.58349 18.1588 11.9962 18.1588 14.7521ZM52.3927 17.5891V0.567391H55.125V17.6702C55.125 20.9394 55.9206 23.4846 57.5117 25.3056C59.1082 27.1321 61.353 28.0453 64.246 28.0453C66.0675 28.0453 67.6533 27.6859 69.0034 26.9672C70.3588 26.254 71.4035 25.2624 72.1375 23.9925C72.8768 22.7226 73.2197 21.2636 73.1661 19.6155L72.483 0.567391H75.2153L74.5322 19.6155C74.4251 22.8577 73.4661 25.3164 71.6553 26.9916C69.8499 28.6667 67.273 29.5043 63.9246 29.5043C60.3083 29.5043 57.4823 28.4425 55.4464 26.3188C53.4106 24.2005 52.3927 21.2906 52.3927 17.5891ZM84.8506 28.9369V0.567391H90.2348C93.0743 0.567391 95.2788 1.1699 96.8486 2.37493C98.4129 3.57456 99.1951 5.25511 99.1951 7.4166C99.1951 9.09175 98.7076 10.4832 97.7325 11.591C96.7521 12.6987 95.3378 13.4417 93.4895 13.82V14.0632C95.2574 14.4144 96.7039 15.252 97.829 16.5759C98.954 17.8998 99.7978 19.5344 100.36 21.4798C100.869 23.263 101.373 24.6463 101.871 25.6298C102.364 26.6187 102.913 27.3293 103.519 27.7616C104.119 28.1939 104.834 28.5046 105.664 28.6937V28.9369H104.017C102.838 28.9369 101.868 28.7208 101.108 28.2885C100.342 27.8562 99.6907 27.1267 99.1549 26.0999C98.6192 25.0732 98.1102 23.6548 97.6281 21.8445C96.8512 19.0616 95.8199 17.0893 94.5342 15.9275C93.2484 14.7657 91.6813 14.1848 89.833 14.1848H89.5919V13.4553H89.833C94.1458 13.4553 96.3021 11.4559 96.3021 7.45713C96.3021 3.51242 94.2797 1.54006 90.2348 1.54006H87.5829V28.9369H84.8506ZM112.776 28.9369H110.044L111.048 0H111.531L131.741 24.6409H131.983L131.099 0.567391H133.831L132.826 29.5043H132.344L112.133 4.86334H111.892L112.776 28.9369ZM156.051 28.9369H143.675V0.567391H155.93V2.55326L148.899 1.62111C147.666 1.459 146.836 1.37795 146.407 1.37795V13.7389C146.756 13.7389 147.586 13.6984 148.899 13.6174L155.488 13.2121V15.0764L148.899 14.6711C147.586 14.59 146.756 14.5495 146.407 14.5495V28.1263C146.89 28.1263 147.733 28.0453 148.939 27.8832L156.051 26.951V28.9369ZM173.409 28.9369H170.516V16.9407L160.551 0.567391H163.605L172.565 15.4006H172.806L179.958 0.567391H183.012L173.409 16.3733V28.9369Z" fill="#444FAE"/>
<path d="M205.593 28.9369H199.084V0.567391H204.669C207.562 0.567391 209.812 1.17531 211.42 2.39115C213.027 3.60698 213.83 5.29564 213.83 7.45713C213.83 9.05123 213.362 10.4076 212.424 11.5261C211.487 12.6501 210.174 13.4147 208.486 13.82V14.0632C210.79 14.3604 212.59 15.1628 213.887 16.4705C215.189 17.7836 215.839 19.4399 215.839 21.4392C215.839 23.7899 214.942 25.6271 213.147 26.951C211.353 28.2749 208.835 28.9369 205.593 28.9369ZM204.709 1.54006H201.816V13.6984H204.669C208.902 13.6984 211.018 11.672 211.018 7.61924C211.018 3.56645 208.915 1.54006 204.709 1.54006ZM205.593 14.6711H201.816V27.9642H205.593C210.495 27.9642 212.946 25.7487 212.946 21.3177C212.946 16.8866 210.495 14.6711 205.593 14.6711ZM226.608 28.9369H223.876V0.567391H226.608V28.9369ZM246.208 28.9369H243.476V1.37795C243.074 1.37795 242.244 1.459 240.985 1.62111L233.109 2.63431V0.567391H256.575V2.63431L248.699 1.62111C247.44 1.459 246.61 1.37795 246.208 1.37795V28.9369ZM275.46 28.9369H263.084V0.567391H275.339V2.55326L268.307 1.62111C267.075 1.459 266.245 1.37795 265.816 1.37795V13.7389C266.164 13.7389 266.995 13.6984 268.307 13.6174L274.897 13.2121V15.0764L268.307 14.6711C266.995 14.59 266.164 14.5495 265.816 14.5495V28.1263C266.298 28.1263 267.142 28.0453 268.348 27.8832L275.46 26.951V28.9369ZM281.446 28.0453L281.688 25.6136H281.929C282.973 26.5322 284.152 27.2482 285.464 27.7616C286.777 28.2749 288.076 28.5316 289.362 28.5316C291.184 28.5316 292.657 28.0237 293.782 27.0078C294.907 25.9973 295.469 24.6409 295.469 22.9388C295.469 21.9931 295.261 21.115 294.843 20.3045C294.43 19.4939 293.747 18.6698 292.793 17.8323C291.845 16.9947 290.541 16.0896 288.88 15.1169C287.728 14.4414 286.63 13.7308 285.585 12.9851C284.54 12.2448 283.683 11.3802 283.013 10.3913C282.344 9.40787 282.009 8.22716 282.009 6.84921C282.009 4.7958 282.746 3.13956 284.219 1.88049C285.692 0.626831 287.634 0 290.045 0C291.117 0 292.268 0.11618 293.501 0.34854C294.733 0.575496 295.684 0.864595 296.353 1.21584L296.153 3.4854H295.911C294.385 1.81025 292.429 0.97267 290.045 0.97267C288.331 0.97267 286.951 1.41037 285.906 2.28577C284.862 3.16658 284.339 4.34999 284.339 5.83601C284.339 6.94378 284.626 7.89483 285.199 8.68918C285.778 9.48893 286.523 10.2049 287.433 10.8372C288.344 11.4748 289.322 12.0908 290.367 12.6852C291.572 13.3877 292.743 14.1307 293.878 14.9143C295.019 15.6978 295.957 16.6353 296.691 17.7269C297.43 18.8238 297.8 20.1964 297.8 21.8445C297.8 23.3576 297.452 24.6869 296.755 25.8325C296.059 26.9835 295.073 27.8832 293.798 28.5316C292.528 29.1801 291.05 29.5043 289.362 29.5043C288.291 29.5043 287.032 29.3692 285.585 29.099C284.139 28.8288 282.759 28.4776 281.446 28.0453Z" fill="#87C0CD"/>
</g>
</g>
</g>
</g>
</g>
</g>
</g>
</g>
<g clip-path="url(#clip8_123_64253)">
<g clip-path="url(#clip9_123_64253)">
<g clip-path="url(#clip10_123_64253)">
<g clip-path="url(#clip11_123_64253)">
<g clip-path="url(#clip12_123_64253)">
<g clip-path="url(#clip13_123_64253)">
<g clip-path="url(#clip14_123_64253)">
<g clip-path="url(#clip15_123_64253)">
<path d="M4.93156 26.4242V0.567391H7.66384V26.181C7.66384 29.5853 7.19507 32.2332 6.25752 34.1245C5.31997 36.0158 3.88686 37.3937 1.95819 38.2583L1.83765 38.0557C2.90914 37.2991 3.694 36.0239 4.19224 34.2298C4.68512 32.4304 4.93156 29.8285 4.93156 26.4242ZM16.1018 14.7521C16.1018 12.6717 16.4688 10.7318 17.2027 8.93234C17.942 7.13831 18.9734 5.57123 20.2966 4.23111C21.6253 2.89639 23.1789 1.85618 24.9576 1.11046C26.7416 0.370154 28.6649 0 30.7275 0C32.7901 0 34.7108 0.370154 36.4894 1.11046C38.2734 1.85618 39.8271 2.89639 41.1504 4.23111C42.479 5.57123 43.5103 7.13831 44.2443 8.93234C44.9836 10.7318 45.3533 12.6717 45.3533 14.7521C45.3533 16.8326 44.9836 18.7698 44.2443 20.5638C43.5103 22.3633 42.479 23.9304 41.1504 25.2651C39.8271 26.6052 38.2734 27.6454 36.4894 28.3857C34.7108 29.1314 32.7901 29.5043 30.7275 29.5043C28.6649 29.5043 26.7416 29.1314 24.9576 28.3857C23.1789 27.6454 21.6253 26.6052 20.2966 25.2651C18.9734 23.9304 17.942 22.3633 17.2027 20.5638C16.4688 18.7698 16.1018 16.8326 16.1018 14.7521ZM19.1555 14.7521C19.1555 17.508 19.6377 19.9181 20.602 21.9823C21.5663 24.0519 22.9191 25.6595 24.6602 26.8051C26.4014 27.9561 28.4238 28.5316 30.7275 28.5316C33.0312 28.5316 35.0536 27.9561 36.7948 26.8051C38.536 25.6595 39.8887 24.0465 40.853 21.9661C41.8174 19.8857 42.2995 17.481 42.2995 14.7521C42.2995 12.0233 41.8174 9.62402 40.853 7.5544C39.8887 5.49018 38.536 3.87717 36.7948 2.71537C35.0536 1.55357 33.0312 0.972669 30.7275 0.972669C28.4238 0.972669 26.4068 1.54546 24.6763 2.69105C22.9512 3.84204 21.5985 5.44965 20.6181 7.51387C19.643 9.58349 19.1555 11.9962 19.1555 14.7521ZM53.3894 17.5891V0.567391H56.1217V17.6702C56.1217 20.9394 56.9173 23.4846 58.5084 25.3056C60.1049 27.1321 62.3497 28.0453 65.2427 28.0453C67.0642 28.0453 68.65 27.6859 70.0001 26.9672C71.3555 26.254 72.4002 25.2624 73.1342 23.9925C73.8735 22.7226 74.2164 21.2636 74.1628 19.6155L73.4797 0.567391H76.212L75.5289 19.6155C75.4218 22.8577 74.4628 25.3164 72.652 26.9916C70.8465 28.6667 68.2696 29.5043 64.9212 29.5043C61.305 29.5043 58.4789 28.4425 56.4431 26.3188C54.4073 24.2005 53.3894 21.2906 53.3894 17.5891ZM85.8473 28.9369V0.567391H91.2315C94.0709 0.567391 96.2755 1.1699 97.8453 2.37493C99.4096 3.57456 100.192 5.25511 100.192 7.4166C100.192 9.09175 99.7043 10.4832 98.7292 11.591C97.7488 12.6987 96.3345 13.4417 94.4862 13.82V14.0632C96.2541 14.4144 97.7006 15.252 98.8257 16.5759C99.9507 17.8998 100.795 19.5344 101.357 21.4798C101.866 23.263 102.37 24.6463 102.868 25.6298C103.361 26.6187 103.91 27.3293 104.515 27.7616C105.115 28.1939 105.83 28.5046 106.661 28.6937V28.9369H105.013C103.835 28.9369 102.865 28.7208 102.104 28.2885C101.338 27.8562 100.687 27.1267 100.152 26.0999C99.6159 25.0732 99.1069 23.6548 98.6247 21.8445C97.8479 19.0616 96.8166 17.0893 95.5308 15.9275C94.2451 14.7657 92.678 14.1848 90.8297 14.1848H90.5886V13.4553H90.8297C95.1424 13.4553 97.2988 11.4559 97.2988 7.45713C97.2988 3.51242 95.2764 1.54006 91.2315 1.54006H88.5796V28.9369H85.8473ZM113.773 28.9369H111.041L112.045 0H112.527L132.738 24.6409H132.979L132.095 0.567391H134.828L133.823 29.5043H133.341L113.13 4.86334H112.889L113.773 28.9369ZM157.047 28.9369H144.672V0.567391H156.927V2.55326L149.895 1.62111C148.663 1.459 147.833 1.37795 147.404 1.37795V13.7389C147.752 13.7389 148.583 13.6984 149.895 13.6174L156.485 13.2121V15.0764L149.895 14.6711C148.583 14.59 147.752 14.5495 147.404 14.5495V28.1263C147.886 28.1263 148.73 28.0453 149.935 27.8832L157.047 26.951V28.9369ZM174.405 28.9369H171.512V16.9407L161.548 0.567391H164.601L173.562 15.4006H173.803L180.955 0.567391H184.009L174.405 16.3733V28.9369Z" fill="#444FAE"/>
<path d="M206.59 28.9369H200.081V0.567391H205.666C208.559 0.567391 210.809 1.17531 212.416 2.39115C214.024 3.60698 214.827 5.29564 214.827 7.45713C214.827 9.05123 214.358 10.4076 213.421 11.5261C212.483 12.6501 211.171 13.4147 209.483 13.82V14.0632C211.787 14.3604 213.587 15.1628 214.883 16.4705C216.185 17.7836 216.836 19.4399 216.836 21.4392C216.836 23.7899 215.939 25.6271 214.144 26.951C212.349 28.2749 209.831 28.9369 206.59 28.9369ZM205.706 1.54006H202.813V13.6984H205.666C209.898 13.6984 212.014 11.672 212.014 7.61924C212.014 3.56645 209.912 1.54006 205.706 1.54006ZM206.59 14.6711H202.813V27.9642H206.59C211.492 27.9642 213.943 25.7487 213.943 21.3177C213.943 16.8866 211.492 14.6711 206.59 14.6711ZM227.605 28.9369H224.872V0.567391H227.605V28.9369ZM247.205 28.9369H244.472V1.37795C244.071 1.37795 243.24 1.459 241.981 1.62111L234.106 2.63431V0.567391H257.571V2.63431L249.696 1.62111C248.437 1.459 247.606 1.37795 247.205 1.37795V28.9369ZM276.456 28.9369H264.081V0.567391H276.336V2.55326L269.304 1.62111C268.072 1.459 267.241 1.37795 266.813 1.37795V13.7389C267.161 13.7389 267.991 13.6984 269.304 13.6174L275.894 13.2121V15.0764L269.304 14.6711C267.991 14.59 267.161 14.5495 266.813 14.5495V28.1263C267.295 28.1263 268.139 28.0453 269.344 27.8832L276.456 26.951V28.9369ZM282.443 28.0453L282.684 25.6136H282.925C283.97 26.5322 285.149 27.2482 286.461 27.7616C287.774 28.2749 289.073 28.5316 290.359 28.5316C292.18 28.5316 293.653 28.0237 294.779 27.0078C295.904 25.9973 296.466 24.6409 296.466 22.9388C296.466 21.9931 296.257 21.115 295.839 20.3045C295.427 19.4939 294.744 18.6698 293.79 17.8323C292.842 16.9947 291.537 16.0896 289.876 15.1169C288.725 14.4414 287.626 13.7308 286.582 12.9851C285.537 12.2448 284.68 11.3802 284.01 10.3913C283.34 9.40787 283.006 8.22716 283.006 6.84921C283.006 4.7958 283.742 3.13956 285.216 1.88049C286.689 0.626831 288.631 0 291.042 0C292.113 0 293.265 0.11618 294.497 0.34854C295.729 0.575496 296.68 0.864595 297.35 1.21584L297.149 3.4854H296.908C295.381 1.81025 293.426 0.97267 291.042 0.97267C289.327 0.97267 287.948 1.41037 286.903 2.28577C285.858 3.16658 285.336 4.34999 285.336 5.83601C285.336 6.94378 285.623 7.89483 286.196 8.68918C286.775 9.48893 287.519 10.2049 288.43 10.8372C289.341 11.4748 290.318 12.0908 291.363 12.6852C292.569 13.3877 293.739 14.1307 294.875 14.9143C296.016 15.6978 296.954 16.6353 297.688 17.7269C298.427 18.8238 298.797 20.1964 298.797 21.8445C298.797 23.3576 298.448 24.6869 297.752 25.8325C297.055 26.9835 296.07 27.8832 294.795 28.5316C293.525 29.1801 292.046 29.5043 290.359 29.5043C289.287 29.5043 288.028 29.3692 286.582 29.099C285.135 28.8288 283.756 28.4776 282.443 28.0453Z" fill="#87C0CD"/>
</g>
</g>
</g>
</g>
</g>
</g>
</g>
</g>
<defs>
<clipPath id="clip0_123_64253">
<rect width="299.003" height="38" fill="white"/>
</clipPath>
<clipPath id="clip1_123_64253">
<rect width="299.003" height="38" fill="white" transform="translate(-0.181213 0.128906)"/>
</clipPath>
<clipPath id="clip2_123_64253">
<rect width="298.02" height="38.2583" fill="white" transform="translate(0.310589)"/>
</clipPath>
<clipPath id="clip3_123_64253">
<rect width="298.02" height="38.2583" fill="white" transform="translate(0.310589)"/>
</clipPath>
<clipPath id="clip4_123_64253">
<rect width="298.02" height="38.2583" fill="white" transform="translate(0.310589)"/>
</clipPath>
<clipPath id="clip5_123_64253">
<rect width="298.02" height="38.2583" fill="white" transform="translate(0.310589)"/>
</clipPath>
<clipPath id="clip6_123_64253">
<rect width="298.02" height="38.2583" fill="white" transform="translate(0.310589)"/>
</clipPath>
<clipPath id="clip7_123_64253">
<rect width="298.02" height="38.2583" fill="white" transform="translate(0.310589)"/>
</clipPath>
<clipPath id="clip8_123_64253">
<rect width="299.003" height="38" fill="white" transform="translate(0.996677)"/>
</clipPath>
<clipPath id="clip9_123_64253">
<rect width="299.003" height="38" fill="white" transform="translate(0.815464 0.128906)"/>
</clipPath>
<clipPath id="clip10_123_64253">
<rect width="298.02" height="38.2583" fill="white" transform="translate(1.30727)"/>
</clipPath>
<clipPath id="clip11_123_64253">
<rect width="298.02" height="38.2583" fill="white" transform="translate(1.30727)"/>
</clipPath>
<clipPath id="clip12_123_64253">
<rect width="298.02" height="38.2583" fill="white" transform="translate(1.30727)"/>
</clipPath>
<clipPath id="clip13_123_64253">
<rect width="298.02" height="38.2583" fill="white" transform="translate(1.30727)"/>
</clipPath>
<clipPath id="clip14_123_64253">
<rect width="298.02" height="38.2583" fill="white" transform="translate(1.30727)"/>
</clipPath>
<clipPath id="clip15_123_64253">
<rect width="298.02" height="38.2583" fill="white" transform="translate(1.30727)"/>
</clipPath>
</defs>
</svg>
