<svg width="95" height="6" viewBox="0 0 95 6" fill="none" xmlns="http://www.w3.org/2000/svg">
<path d="M1 1.47059L3.45913 3L5.36756 4.13821C6.2651 4.67352 7.37653 4.70318 8.30135 4.2165L12.9246 1.7835C13.8494 1.29682 14.9609 1.32648 15.8584 1.86179L19.6752 4.13821C20.5728 4.67352 21.6842 4.70318 22.609 4.2165L26.9681 1.92256C28.0313 1.36301 29.3259 1.49184 30.2581 2.24995L32.0597 3.71522C33.0134 4.49085 34.3437 4.60619 35.4167 4.00626L39.2808 1.8457C40.2166 1.32241 41.3607 1.3384 42.2816 1.88764L45.9633 4.08349C46.91 4.6481 48.09 4.6481 49.0367 4.08349L52.67 1.91651C53.6167 1.3519 54.7968 1.3519 55.7434 1.91651L59.3768 4.08349C60.3234 4.6481 61.5035 4.6481 62.4502 4.08349L66.1319 1.88763C67.0528 1.3384 68.1968 1.32241 69.1327 1.8457L73.2072 4.12392C74.172 4.66337 75.3553 4.62859 76.2867 4.03338L79.521 1.96661C80.4524 1.37141 81.6357 1.33663 82.6005 1.87608L86.7135 4.17582C87.6286 4.68752 88.7445 4.6843 89.6567 4.16734L94 1.70588" stroke="#0F172A"/>
</svg>
