<svg width="201" height="26" viewBox="0 0 201 26" fill="none" xmlns="http://www.w3.org/2000/svg">
<g clip-path="url(#clip0_111_60119)">
<g clip-path="url(#clip1_111_60119)">
<g clip-path="url(#clip2_111_60119)">
<g clip-path="url(#clip3_111_60119)">
<g clip-path="url(#clip4_111_60119)">
<g clip-path="url(#clip5_111_60119)">
<g clip-path="url(#clip6_111_60119)">
<g clip-path="url(#clip7_111_60119)">
<path d="M2.63198 17.9234V0.776294H4.45957V17.7622C4.45957 20.0198 4.14602 21.7757 3.5189 23.0299C2.89179 24.2842 1.9332 25.198 0.643129 25.7713L0.5625 25.6369C1.2792 25.1353 1.80419 24.2895 2.13746 23.0998C2.46714 21.9065 2.63198 20.181 2.63198 17.9234ZM10.1036 10.183C10.1036 8.80337 10.3491 7.51689 10.84 6.32358C11.3346 5.13385 12.0244 4.09463 12.9095 3.20592C13.7982 2.32079 14.8374 1.63096 16.0272 1.13644C17.2205 0.645495 18.507 0.400024 19.8866 0.400024C21.2663 0.400024 22.551 0.645495 23.7407 1.13644C24.934 1.63096 25.9732 2.32079 26.8583 3.20592C27.7471 4.09463 28.4369 5.13385 28.9278 6.32358C29.4224 7.51689 29.6696 8.80337 29.6696 10.183C29.6696 11.5627 29.4224 12.8474 28.9278 14.0371C28.4369 15.2304 27.7471 16.2696 26.8583 17.1548C25.9732 18.0435 24.934 18.7333 23.7407 19.2242C22.551 19.7188 21.2663 19.966 19.8866 19.966C18.507 19.966 17.2205 19.7188 16.0272 19.2242C14.8374 18.7333 13.7982 18.0435 12.9095 17.1548C12.0244 16.2696 11.3346 15.2304 10.84 14.0371C10.3491 12.8474 10.1036 11.5627 10.1036 10.183ZM12.1462 10.183C12.1462 12.0106 12.4687 13.6089 13.1138 14.9778C13.7588 16.3503 14.6636 17.4164 15.8283 18.1761C16.9929 18.9394 18.3457 19.321 19.8866 19.321C21.4275 19.321 22.7803 18.9394 23.9449 18.1761C25.1096 17.4164 26.0144 16.3467 26.6595 14.967C27.3045 13.5874 27.627 11.9927 27.627 10.183C27.627 8.37335 27.3045 6.78227 26.6595 5.40978C26.0144 4.04088 25.1096 2.9712 23.9449 2.20074C22.7803 1.43029 21.4275 1.04506 19.8866 1.04506C18.3457 1.04506 16.9965 1.42491 15.839 2.18462C14.6851 2.94791 13.7803 4.014 13.1245 5.38291C12.4723 6.75539 12.1462 8.35543 12.1462 10.183ZM35.0449 12.0644V0.776294H36.8725V12.1181C36.8725 14.2862 37.4046 15.974 38.4689 17.1816C39.5368 18.3929 41.0383 18.9985 42.9734 18.9985C44.1918 18.9985 45.2525 18.7602 46.1556 18.2836C47.0622 17.8105 47.761 17.153 48.2519 16.3108C48.7465 15.4687 48.9758 14.5012 48.94 13.4082L48.4831 0.776294H50.3107L49.8538 13.4082C49.7821 15.5583 49.1407 17.1888 47.9294 18.2997C46.7218 19.4106 44.9981 19.966 42.7584 19.966C40.3395 19.966 38.4492 19.2619 37.0875 17.8535C35.7258 16.4488 35.0449 14.5191 35.0449 12.0644ZM56.7556 19.5898V0.776294H60.3571C62.2563 0.776294 63.7309 1.17586 64.7809 1.97498C65.8273 2.77052 66.3505 3.885 66.3505 5.3184C66.3505 6.42929 66.0244 7.35205 65.3722 8.08667C64.7164 8.82129 63.7704 9.31402 62.5341 9.56487V9.72613C63.7166 9.95906 64.6842 10.5145 65.4367 11.3925C66.1892 12.2704 66.7536 13.3544 67.1299 14.6445C67.4703 15.8271 67.8072 16.7444 68.1405 17.3966C68.4701 18.0524 68.8375 18.5237 69.2424 18.8103C69.6437 19.097 70.1222 19.3031 70.6776 19.4285V19.5898H69.5757C68.7873 19.5898 68.1387 19.4464 67.6298 19.1597C67.1174 18.8731 66.682 18.3893 66.3236 17.7084C65.9653 17.0275 65.6248 16.0869 65.3023 14.8864C64.7827 13.0409 64.0929 11.7329 63.2328 10.9624C62.3728 10.192 61.3246 9.80676 60.0883 9.80676H59.927V9.32298H60.0883C62.973 9.32298 64.4154 7.99708 64.4154 5.34528C64.4154 2.72931 63.0626 1.42133 60.3571 1.42133H58.5832V19.5898H56.7556ZM75.4347 19.5898H73.6071L74.279 0.400024H74.6015L88.1204 16.7409H88.2816L87.6903 0.776294H89.5179L88.846 19.966H88.5235L75.0047 3.62519H74.8434L75.4347 19.5898ZM104.381 19.5898H96.1027V0.776294H104.3V2.09324L99.5966 1.47508C98.7724 1.36757 98.2169 1.31382 97.9302 1.31382V9.51112C98.1632 9.51112 98.7186 9.48424 99.5966 9.43049L104.004 9.16173V10.398L99.5966 10.1293C98.7186 10.0755 98.1632 10.0486 97.9302 10.0486V19.0522C98.2528 19.0522 98.8172 18.9985 99.6235 18.891L104.381 18.2728V19.5898ZM115.991 19.5898H114.056V11.6344L107.391 0.776294H109.433L115.427 10.613H115.588L120.372 0.776294H122.415L115.991 11.2581V19.5898Z" fill="#444FAE"/>
<path d="M137.519 19.5898H133.165V0.776294H136.901C138.836 0.776294 140.341 1.17944 141.416 1.98573C142.491 2.79202 143.029 3.91187 143.029 5.34528C143.029 6.40242 142.715 7.30188 142.088 8.04367C141.461 8.78904 140.583 9.29611 139.454 9.56487V9.72613C140.995 9.92322 142.199 10.4554 143.066 11.3226C143.937 12.1934 144.372 13.2917 144.372 14.6176C144.372 16.1765 143.772 17.3949 142.572 18.2728C141.371 19.1508 139.687 19.5898 137.519 19.5898ZM136.928 1.42133H134.993V9.48424H136.901C139.732 9.48424 141.147 8.14042 141.147 5.45279C141.147 2.76515 139.741 1.42133 136.928 1.42133ZM137.519 10.1293H134.993V18.9447H137.519C140.798 18.9447 142.437 17.4755 142.437 14.537C142.437 11.5985 140.798 10.1293 137.519 10.1293ZM151.575 19.5898H149.748V0.776294H151.575V19.5898ZM164.686 19.5898H162.858V1.31382C162.589 1.31382 162.034 1.36757 161.192 1.47508L155.924 2.14699V0.776294H171.62V2.14699L166.352 1.47508C165.51 1.36757 164.954 1.31382 164.686 1.31382V19.5898ZM184.252 19.5898H175.974V0.776294H184.171V2.09324L179.468 1.47508C178.643 1.36757 178.088 1.31382 177.801 1.31382V9.51112C178.034 9.51112 178.59 9.48424 179.468 9.43049L183.875 9.16173V10.398L179.468 10.1293C178.59 10.0755 178.034 10.0486 177.801 10.0486V19.0522C178.124 19.0522 178.688 18.9985 179.495 18.891L184.252 18.2728V19.5898ZM188.256 18.9985L188.418 17.3859H188.579C189.278 17.9951 190.066 18.4699 190.944 18.8103C191.822 19.1508 192.691 19.321 193.551 19.321C194.769 19.321 195.755 18.9841 196.507 18.3104C197.26 17.6403 197.636 16.7409 197.636 15.6121C197.636 14.9849 197.496 14.4026 197.217 13.8651C196.941 13.3276 196.484 12.7811 195.846 12.2256C195.212 11.6702 194.339 11.07 193.228 10.4249C192.458 9.97698 191.723 9.50574 191.025 9.01122C190.326 8.52028 189.752 7.94691 189.304 7.29113C188.856 6.63893 188.633 5.85593 188.633 4.94213C188.633 3.5804 189.125 2.48205 190.111 1.64709C191.096 0.815712 192.395 0.400024 194.008 0.400024C194.724 0.400024 195.495 0.47707 196.319 0.631161C197.143 0.781669 197.779 0.973387 198.227 1.20632L198.093 2.71139H197.932C196.91 1.6005 195.602 1.04506 194.008 1.04506C192.861 1.04506 191.938 1.33532 191.24 1.91585C190.541 2.49997 190.191 3.28476 190.191 4.27022C190.191 5.00485 190.383 5.63554 190.766 6.16232C191.154 6.69268 191.652 7.1675 192.261 7.58677C192.87 8.00962 193.524 8.41815 194.223 8.81233C195.029 9.27819 195.812 9.77092 196.572 10.2905C197.335 10.8101 197.962 11.4319 198.453 12.1558C198.948 12.8832 199.195 13.7934 199.195 14.8864C199.195 15.8898 198.962 16.7713 198.496 17.531C198.03 18.2943 197.371 18.891 196.518 19.321C195.669 19.751 194.68 19.966 193.551 19.966C192.834 19.966 191.992 19.8764 191.025 19.6973C190.057 19.5181 189.134 19.2852 188.256 18.9985Z" fill="#87C0CD"/>
</g>
</g>
</g>
</g>
</g>
</g>
</g>
</g>
<g clip-path="url(#clip8_111_60119)">
<g clip-path="url(#clip9_111_60119)">
<g clip-path="url(#clip10_111_60119)">
<g clip-path="url(#clip11_111_60119)">
<g clip-path="url(#clip12_111_60119)">
<g clip-path="url(#clip13_111_60119)">
<g clip-path="url(#clip14_111_60119)">
<g clip-path="url(#clip15_111_60119)">
<path d="M3.63198 17.9234V0.776294H5.45957V17.7622C5.45957 20.0198 5.14602 21.7757 4.5189 23.0299C3.89179 24.2842 2.9332 25.198 1.64313 25.7713L1.5625 25.6369C2.2792 25.1353 2.80419 24.2895 3.13746 23.0998C3.46714 21.9065 3.63198 20.181 3.63198 17.9234ZM11.1036 10.183C11.1036 8.80337 11.3491 7.51689 11.84 6.32358C12.3346 5.13385 13.0244 4.09463 13.9095 3.20592C14.7982 2.32079 15.8374 1.63096 17.0272 1.13644C18.2205 0.645495 19.507 0.400024 20.8866 0.400024C22.2663 0.400024 23.551 0.645495 24.7407 1.13644C25.934 1.63096 26.9732 2.32079 27.8583 3.20592C28.7471 4.09463 29.4369 5.13385 29.9278 6.32358C30.4224 7.51689 30.6696 8.80337 30.6696 10.183C30.6696 11.5627 30.4224 12.8474 29.9278 14.0371C29.4369 15.2304 28.7471 16.2696 27.8583 17.1548C26.9732 18.0435 25.934 18.7333 24.7407 19.2242C23.551 19.7188 22.2663 19.966 20.8866 19.966C19.507 19.966 18.2205 19.7188 17.0272 19.2242C15.8374 18.7333 14.7982 18.0435 13.9095 17.1548C13.0244 16.2696 12.3346 15.2304 11.84 14.0371C11.3491 12.8474 11.1036 11.5627 11.1036 10.183ZM13.1462 10.183C13.1462 12.0106 13.4687 13.6089 14.1138 14.9778C14.7588 16.3503 15.6636 17.4164 16.8283 18.1761C17.9929 18.9394 19.3457 19.321 20.8866 19.321C22.4275 19.321 23.7803 18.9394 24.9449 18.1761C26.1096 17.4164 27.0144 16.3467 27.6595 14.967C28.3045 13.5874 28.627 11.9927 28.627 10.183C28.627 8.37335 28.3045 6.78227 27.6595 5.40978C27.0144 4.04088 26.1096 2.9712 24.9449 2.20074C23.7803 1.43029 22.4275 1.04506 20.8866 1.04506C19.3457 1.04506 17.9965 1.42491 16.839 2.18462C15.6851 2.94791 14.7803 4.014 14.1245 5.38291C13.4723 6.75539 13.1462 8.35543 13.1462 10.183ZM36.0449 12.0644V0.776294H37.8725V12.1181C37.8725 14.2862 38.4046 15.974 39.4689 17.1816C40.5368 18.3929 42.0383 18.9985 43.9734 18.9985C45.1918 18.9985 46.2525 18.7602 47.1556 18.2836C48.0622 17.8105 48.761 17.153 49.2519 16.3108C49.7465 15.4687 49.9758 14.5012 49.94 13.4082L49.4831 0.776294H51.3107L50.8538 13.4082C50.7821 15.5583 50.1407 17.1888 48.9294 18.2997C47.7218 19.4106 45.9981 19.966 43.7584 19.966C41.3395 19.966 39.4492 19.2619 38.0875 17.8535C36.7258 16.4488 36.0449 14.5191 36.0449 12.0644ZM57.7556 19.5898V0.776294H61.3571C63.2563 0.776294 64.7309 1.17586 65.7809 1.97498C66.8273 2.77052 67.3505 3.885 67.3505 5.3184C67.3505 6.42929 67.0244 7.35205 66.3722 8.08667C65.7164 8.82129 64.7704 9.31402 63.5341 9.56487V9.72613C64.7166 9.95906 65.6842 10.5145 66.4367 11.3925C67.1892 12.2704 67.7536 13.3544 68.1299 14.6445C68.4703 15.8271 68.8072 16.7444 69.1405 17.3966C69.4701 18.0524 69.8375 18.5237 70.2424 18.8103C70.6437 19.097 71.1222 19.3031 71.6776 19.4285V19.5898H70.5757C69.7873 19.5898 69.1387 19.4464 68.6298 19.1597C68.1174 18.8731 67.682 18.3893 67.3236 17.7084C66.9653 17.0275 66.6248 16.0869 66.3023 14.8864C65.7827 13.0409 65.0929 11.7329 64.2328 10.9624C63.3728 10.192 62.3246 9.80676 61.0883 9.80676H60.927V9.32298H61.0883C63.973 9.32298 65.4154 7.99708 65.4154 5.34528C65.4154 2.72931 64.0626 1.42133 61.3571 1.42133H59.5832V19.5898H57.7556ZM76.4347 19.5898H74.6071L75.279 0.400024H75.6015L89.1204 16.7409H89.2816L88.6903 0.776294H90.5179L89.846 19.966H89.5235L76.0047 3.62519H75.8434L76.4347 19.5898ZM105.381 19.5898H97.1027V0.776294H105.3V2.09324L100.597 1.47508C99.7724 1.36757 99.2169 1.31382 98.9302 1.31382V9.51112C99.1632 9.51112 99.7186 9.48424 100.597 9.43049L105.004 9.16173V10.398L100.597 10.1293C99.7186 10.0755 99.1632 10.0486 98.9302 10.0486V19.0522C99.2528 19.0522 99.8172 18.9985 100.623 18.891L105.381 18.2728V19.5898ZM116.991 19.5898H115.056V11.6344L108.391 0.776294H110.433L116.427 10.613H116.588L121.372 0.776294H123.415L116.991 11.2581V19.5898Z" fill="#444FAE"/>
<path d="M138.519 19.5898H134.165V0.776294H137.901C139.836 0.776294 141.341 1.17944 142.416 1.98573C143.491 2.79202 144.029 3.91187 144.029 5.34528C144.029 6.40242 143.715 7.30188 143.088 8.04367C142.461 8.78904 141.583 9.29611 140.454 9.56487V9.72613C141.995 9.92322 143.199 10.4554 144.066 11.3226C144.937 12.1934 145.372 13.2917 145.372 14.6176C145.372 16.1765 144.772 17.3949 143.572 18.2728C142.371 19.1508 140.687 19.5898 138.519 19.5898ZM137.928 1.42133H135.993V9.48424H137.901C140.732 9.48424 142.147 8.14042 142.147 5.45279C142.147 2.76515 140.741 1.42133 137.928 1.42133ZM138.519 10.1293H135.993V18.9447H138.519C141.798 18.9447 143.437 17.4755 143.437 14.537C143.437 11.5985 141.798 10.1293 138.519 10.1293ZM152.575 19.5898H150.748V0.776294H152.575V19.5898ZM165.686 19.5898H163.858V1.31382C163.589 1.31382 163.034 1.36757 162.192 1.47508L156.924 2.14699V0.776294H172.62V2.14699L167.352 1.47508C166.51 1.36757 165.954 1.31382 165.686 1.31382V19.5898ZM185.252 19.5898H176.974V0.776294H185.171V2.09324L180.468 1.47508C179.643 1.36757 179.088 1.31382 178.801 1.31382V9.51112C179.034 9.51112 179.59 9.48424 180.468 9.43049L184.875 9.16173V10.398L180.468 10.1293C179.59 10.0755 179.034 10.0486 178.801 10.0486V19.0522C179.124 19.0522 179.688 18.9985 180.495 18.891L185.252 18.2728V19.5898ZM189.256 18.9985L189.418 17.3859H189.579C190.278 17.9951 191.066 18.4699 191.944 18.8103C192.822 19.1508 193.691 19.321 194.551 19.321C195.769 19.321 196.755 18.9841 197.507 18.3104C198.26 17.6403 198.636 16.7409 198.636 15.6121C198.636 14.9849 198.496 14.4026 198.217 13.8651C197.941 13.3276 197.484 12.7811 196.846 12.2256C196.212 11.6702 195.339 11.07 194.228 10.4249C193.458 9.97698 192.723 9.50574 192.025 9.01122C191.326 8.52028 190.752 7.94691 190.304 7.29113C189.856 6.63893 189.633 5.85593 189.633 4.94213C189.633 3.5804 190.125 2.48205 191.111 1.64709C192.096 0.815712 193.395 0.400024 195.008 0.400024C195.724 0.400024 196.495 0.47707 197.319 0.631161C198.143 0.781669 198.779 0.973387 199.227 1.20632L199.093 2.71139H198.932C197.91 1.6005 196.602 1.04506 195.008 1.04506C193.861 1.04506 192.938 1.33532 192.24 1.91585C191.541 2.49997 191.191 3.28476 191.191 4.27022C191.191 5.00485 191.383 5.63554 191.766 6.16232C192.154 6.69268 192.652 7.1675 193.261 7.58677C193.87 8.00962 194.524 8.41815 195.223 8.81233C196.029 9.27819 196.812 9.77092 197.572 10.2905C198.335 10.8101 198.962 11.4319 199.453 12.1558C199.948 12.8832 200.195 13.7934 200.195 14.8864C200.195 15.8898 199.962 16.7713 199.496 17.531C199.03 18.2943 198.371 18.891 197.518 19.321C196.669 19.751 195.68 19.966 194.551 19.966C193.834 19.966 192.992 19.8764 192.025 19.6973C191.057 19.5181 190.134 19.2852 189.256 18.9985Z" fill="#87C0CD"/>
</g>
</g>
</g>
</g>
</g>
</g>
</g>
</g>
<defs>
<clipPath id="clip0_111_60119">
<rect width="200" height="25.2" fill="white" transform="translate(0 0.400024)"/>
</clipPath>
<clipPath id="clip1_111_60119">
<rect width="200" height="25.2" fill="white" transform="translate(-0.121094 0.485718)"/>
</clipPath>
<clipPath id="clip2_111_60119">
<rect width="199.342" height="25.3713" fill="white" transform="translate(0.207764 0.400024)"/>
</clipPath>
<clipPath id="clip3_111_60119">
<rect width="199.342" height="25.3713" fill="white" transform="translate(0.207764 0.400024)"/>
</clipPath>
<clipPath id="clip4_111_60119">
<rect width="199.342" height="25.3713" fill="white" transform="translate(0.207764 0.400024)"/>
</clipPath>
<clipPath id="clip5_111_60119">
<rect width="199.342" height="25.3713" fill="white" transform="translate(0.207764 0.400024)"/>
</clipPath>
<clipPath id="clip6_111_60119">
<rect width="199.342" height="25.3713" fill="white" transform="translate(0.207764 0.400024)"/>
</clipPath>
<clipPath id="clip7_111_60119">
<rect width="199.342" height="25.3713" fill="white" transform="translate(0.207764 0.400024)"/>
</clipPath>
<clipPath id="clip8_111_60119">
<rect width="200" height="25.2" fill="white" transform="translate(1 0.400024)"/>
</clipPath>
<clipPath id="clip9_111_60119">
<rect width="200" height="25.2" fill="white" transform="translate(0.878906 0.485718)"/>
</clipPath>
<clipPath id="clip10_111_60119">
<rect width="199.342" height="25.3713" fill="white" transform="translate(1.20776 0.400024)"/>
</clipPath>
<clipPath id="clip11_111_60119">
<rect width="199.342" height="25.3713" fill="white" transform="translate(1.20776 0.400024)"/>
</clipPath>
<clipPath id="clip12_111_60119">
<rect width="199.342" height="25.3713" fill="white" transform="translate(1.20776 0.400024)"/>
</clipPath>
<clipPath id="clip13_111_60119">
<rect width="199.342" height="25.3713" fill="white" transform="translate(1.20776 0.400024)"/>
</clipPath>
<clipPath id="clip14_111_60119">
<rect width="199.342" height="25.3713" fill="white" transform="translate(1.20776 0.400024)"/>
</clipPath>
<clipPath id="clip15_111_60119">
<rect width="199.342" height="25.3713" fill="white" transform="translate(1.20776 0.400024)"/>
</clipPath>
</defs>
</svg>
