<svg width="160" height="20" viewBox="0 0 160 20" fill="none" xmlns="http://www.w3.org/2000/svg">
<g clip-path="url(#clip0_123_64184)">
<mask id="mask0_123_64184" style="mask-type:luminance" maskUnits="userSpaceOnUse" x="0" y="0" width="160" height="20">
<path d="M159.468 0H0V20H159.468V0Z" fill="white"/>
</mask>
<g mask="url(#mask0_123_64184)">
<mask id="mask1_123_64184" style="mask-type:luminance" maskUnits="userSpaceOnUse" x="-1" y="0" width="161" height="21">
<path d="M159.372 0.0683594H-0.0966797V20.0684H159.372V0.0683594Z" fill="white"/>
</mask>
<g mask="url(#mask1_123_64184)">
<mask id="mask2_123_64184" style="mask-type:luminance" maskUnits="userSpaceOnUse" x="0" y="0" width="160" height="21">
<path d="M159.109 0H0.165649V20.1359H159.109V0Z" fill="white"/>
</mask>
<g mask="url(#mask2_123_64184)">
<mask id="mask3_123_64184" style="mask-type:luminance" maskUnits="userSpaceOnUse" x="0" y="0" width="160" height="21">
<path d="M159.109 0H0.165649V20.1359H159.109V0Z" fill="white"/>
</mask>
<g mask="url(#mask3_123_64184)">
<mask id="mask4_123_64184" style="mask-type:luminance" maskUnits="userSpaceOnUse" x="0" y="0" width="160" height="21">
<path d="M159.109 0H0.165649V20.1359H159.109V0Z" fill="white"/>
</mask>
<g mask="url(#mask4_123_64184)">
<mask id="mask5_123_64184" style="mask-type:luminance" maskUnits="userSpaceOnUse" x="0" y="0" width="160" height="21">
<path d="M159.109 0H0.165649V20.1359H159.109V0Z" fill="white"/>
</mask>
<g mask="url(#mask5_123_64184)">
<mask id="mask6_123_64184" style="mask-type:luminance" maskUnits="userSpaceOnUse" x="0" y="0" width="160" height="21">
<path d="M159.109 0H0.165649V20.1359H159.109V0Z" fill="white"/>
</mask>
<g mask="url(#mask6_123_64184)">
<mask id="mask7_123_64184" style="mask-type:luminance" maskUnits="userSpaceOnUse" x="0" y="0" width="160" height="21">
<path d="M159.109 0H0.165649V20.1359H159.109V0Z" fill="white"/>
</mask>
<g mask="url(#mask7_123_64184)">
<path d="M2.09863 13.9075V0.298627H3.55585V13.7795C3.55585 15.5712 3.30584 16.9648 2.80581 17.9603C2.30579 18.9557 1.54146 19.6809 0.512837 20.1359L0.448547 20.0293C1.02001 19.6311 1.4386 18.9599 1.70432 18.0157C1.9672 17.0686 2.09863 15.6992 2.09863 13.9075ZM8.05609 7.76426C8.05609 6.66932 8.25181 5.64832 8.64325 4.70123C9.03756 3.75701 9.58757 2.93223 10.2933 2.2269C11.0019 1.52442 11.8305 0.976937 12.7792 0.584453C13.7307 0.194818 14.7564 0 15.8565 0C16.9566 0 17.9809 0.194818 18.9295 0.584453C19.881 0.976937 20.7096 1.52442 21.4153 2.2269C22.124 2.93223 22.674 3.75701 23.0654 4.70123C23.4597 5.64832 23.6569 6.66932 23.6569 7.76426C23.6569 8.85926 23.4597 9.87884 23.0654 10.8231C22.674 11.7702 22.124 12.5949 21.4153 13.2974C20.7096 14.0027 19.881 14.5502 18.9295 14.9398C17.9809 15.3323 16.9566 15.5286 15.8565 15.5286C14.7564 15.5286 13.7307 15.3323 12.7792 14.9398C11.8305 14.5502 11.0019 14.0027 10.2933 13.2974C9.58757 12.5949 9.03756 11.7702 8.64325 10.8231C8.25181 9.87884 8.05609 8.85926 8.05609 7.76426ZM9.68474 7.76426C9.68474 9.21474 9.94191 10.4832 10.4562 11.5696C10.9705 12.6589 11.692 13.505 12.6206 14.1079C13.5492 14.7137 14.6278 15.0166 15.8565 15.0166C17.0851 15.0166 18.1637 14.7137 19.0924 14.1079C20.021 13.505 20.7424 12.6561 21.2568 11.5611C21.7711 10.4662 22.0282 9.20053 22.0282 7.76426C22.0282 6.32805 21.7711 5.06527 21.2568 3.976C20.7424 2.88957 20.021 2.04062 19.0924 1.42914C18.1637 0.817668 17.0851 0.511931 15.8565 0.511931C14.6278 0.511931 13.5521 0.8134 12.6292 1.41634C11.7091 2.02213 10.9877 2.86824 10.4648 3.95467C9.94473 5.04394 9.68474 6.31379 9.68474 7.76426ZM27.9428 9.25742V0.298627H29.4V9.30011C29.4 11.0207 29.8243 12.3603 30.673 13.3187C31.5244 14.2801 32.7217 14.7607 34.2646 14.7607C35.236 14.7607 36.0818 14.5715 36.8018 14.1933C37.5247 13.8179 38.0819 13.296 38.4734 12.6276C38.8677 11.9593 39.0505 11.1914 39.0219 10.3239L38.6577 0.298627H40.1149L39.7505 10.3239C39.6934 12.0304 39.1819 13.3244 38.2162 14.2061C37.2533 15.0877 35.8789 15.5286 34.0931 15.5286C32.1645 15.5286 30.6572 14.9697 29.5715 13.852C28.4857 12.7371 27.9428 11.2056 27.9428 9.25742ZM45.2537 15.2299V0.298627H48.1253C49.6397 0.298627 50.8154 0.615737 51.6526 1.24996C52.4869 1.88135 52.9041 2.76585 52.9041 3.90347C52.9041 4.78513 52.6441 5.51747 52.1241 6.10053C51.6012 6.68353 50.8468 7.07458 49.8611 7.27368V7.40168C50.804 7.58653 51.5754 8.02737 52.1755 8.72416C52.7755 9.42095 53.2258 10.2813 53.5256 11.3052C53.7972 12.2437 54.0657 12.9717 54.3314 13.4894C54.594 14.0098 54.8869 14.3838 55.2101 14.6114C55.5301 14.8389 55.9112 15.0024 56.354 15.1019V15.2299H55.4759C54.847 15.2299 54.3298 15.1162 53.9243 14.8887C53.5155 14.6612 53.1684 14.2772 52.8827 13.7368C52.597 13.1964 52.3255 12.4499 52.0683 11.4971C51.654 10.0324 51.104 8.99437 50.4182 8.38289C49.7325 7.77142 48.8968 7.46568 47.911 7.46568H47.7824V7.08174H47.911C50.2111 7.08174 51.3612 6.02942 51.3612 3.92481C51.3612 1.84864 50.2825 0.810558 48.1253 0.810558H46.7109V15.2299H45.2537ZM60.1473 15.2299H58.6902L59.2261 0H59.4828L70.2623 12.9689H70.3904L69.9195 0.298627H71.3765L70.8407 15.5286H70.5834L59.8044 2.55965H59.6758L60.1473 15.2299ZM83.2271 15.2299H76.6267V0.298627H83.1628V1.34382L79.4126 0.853216C78.7556 0.767895 78.3123 0.725237 78.0837 0.725237V7.231C78.2698 7.231 78.7126 7.20968 79.4126 7.16705L82.9273 6.95374V7.93495L79.4126 7.72163C78.7126 7.67895 78.2698 7.65763 78.0837 7.65763V14.8033C78.341 14.8033 78.7912 14.7607 79.4339 14.6754L83.2271 14.1847V15.2299ZM92.4848 15.2299H90.9417V8.91616L85.6271 0.298627H87.2558L92.0346 8.10558H92.1632L95.9777 0.298627H97.6064L92.4848 8.61753V15.2299Z" fill="#444FAE"/>
<path d="M109.65 15.2299H106.178V0.298627H109.157C110.7 0.298627 111.9 0.618584 112.757 1.2585C113.614 1.89841 114.043 2.78718 114.043 3.92481C114.043 4.76381 113.793 5.47768 113.293 6.06637C112.793 6.65795 112.093 7.06037 111.193 7.27368V7.40168C112.422 7.55811 113.382 7.98042 114.073 8.66868C114.767 9.35979 115.114 10.2315 115.114 11.2838C115.114 12.521 114.636 13.4879 113.679 14.1847C112.721 14.8815 111.379 15.2299 109.65 15.2299ZM109.178 0.810558H107.635V7.20968H109.157C111.414 7.20968 112.543 6.14316 112.543 4.01013C112.543 1.87708 111.421 0.810558 109.178 0.810558ZM109.65 7.72163H107.635V14.718H109.65C112.264 14.718 113.571 13.5519 113.571 11.2198C113.571 8.88768 112.264 7.72163 109.65 7.72163ZM120.857 15.2299H119.4V0.298627H120.857V15.2299ZM131.311 15.2299H129.854V0.725237C129.639 0.725237 129.197 0.767895 128.525 0.853216L124.325 1.38648V0.298627H136.84V1.38648L132.639 0.853216C131.968 0.767895 131.525 0.725237 131.311 0.725237V15.2299ZM146.912 15.2299H140.311V0.298627H146.848V1.34382L143.097 0.853216C142.44 0.767895 141.997 0.725237 141.769 0.725237V7.231C141.955 7.231 142.397 7.20968 143.097 7.16705L146.612 6.95374V7.93495L143.097 7.72163C142.397 7.67895 141.955 7.65763 141.769 7.65763V14.8033C142.026 14.8033 142.476 14.7607 143.119 14.6754L146.912 14.1847V15.2299ZM150.105 14.7607L150.233 13.4808H150.362C150.919 13.9643 151.548 14.3412 152.248 14.6114C152.948 14.8815 153.641 15.0166 154.327 15.0166C155.298 15.0166 156.083 14.7493 156.684 14.2146C157.284 13.6828 157.584 12.9689 157.584 12.0731C157.584 11.5753 157.472 11.1132 157.249 10.6866C157.03 10.2599 156.665 9.82621 156.156 9.38542C155.651 8.94458 154.955 8.46821 154.069 7.95626C153.455 7.60074 152.869 7.22674 152.312 6.83426C151.755 6.44463 151.298 5.98958 150.941 5.46911C150.583 4.95151 150.405 4.33008 150.405 3.60485C150.405 2.52411 150.798 1.6524 151.583 0.989732C152.369 0.329911 153.405 0 154.691 0C155.262 0 155.877 0.0611474 156.534 0.183442C157.191 0.302893 157.698 0.45505 158.055 0.639916L157.948 1.83442H157.82C157.005 0.952763 155.962 0.511932 154.691 0.511932C153.776 0.511932 153.041 0.7423 152.484 1.20304C151.926 1.66662 151.648 2.28947 151.648 3.07158C151.648 3.65462 151.801 4.15517 152.106 4.57325C152.415 4.99417 152.812 5.371 153.298 5.70379C153.783 6.03937 154.305 6.36358 154.862 6.67642C155.505 7.04616 156.129 7.43721 156.735 7.84963C157.344 8.262 157.844 8.75542 158.235 9.32995C158.63 9.90726 158.827 10.6297 158.827 11.4971C158.827 12.2935 158.641 12.9931 158.269 13.5961C157.898 14.2018 157.372 14.6754 156.692 15.0166C156.015 15.3579 155.227 15.5286 154.327 15.5286C153.755 15.5286 153.083 15.4575 152.312 15.3153C151.541 15.1731 150.805 14.9882 150.105 14.7607Z" fill="#87C0CD"/>
</g>
</g>
</g>
</g>
</g>
</g>
</g>
</g>
<mask id="mask8_123_64184" style="mask-type:luminance" maskUnits="userSpaceOnUse" x="0" y="0" width="160" height="20">
<path d="M160 0H0.531555V20H160V0Z" fill="white"/>
</mask>
<g mask="url(#mask8_123_64184)">
<mask id="mask9_123_64184" style="mask-type:luminance" maskUnits="userSpaceOnUse" x="0" y="0" width="160" height="21">
<path d="M159.903 0.0683594H0.434875V20.0684H159.903V0.0683594Z" fill="white"/>
</mask>
<g mask="url(#mask9_123_64184)">
<mask id="mask10_123_64184" style="mask-type:luminance" maskUnits="userSpaceOnUse" x="0" y="0" width="160" height="21">
<path d="M159.641 0H0.697205V20.1359H159.641V0Z" fill="white"/>
</mask>
<g mask="url(#mask10_123_64184)">
<mask id="mask11_123_64184" style="mask-type:luminance" maskUnits="userSpaceOnUse" x="0" y="0" width="160" height="21">
<path d="M159.641 0H0.697205V20.1359H159.641V0Z" fill="white"/>
</mask>
<g mask="url(#mask11_123_64184)">
<mask id="mask12_123_64184" style="mask-type:luminance" maskUnits="userSpaceOnUse" x="0" y="0" width="160" height="21">
<path d="M159.641 0H0.697205V20.1359H159.641V0Z" fill="white"/>
</mask>
<g mask="url(#mask12_123_64184)">
<mask id="mask13_123_64184" style="mask-type:luminance" maskUnits="userSpaceOnUse" x="0" y="0" width="160" height="21">
<path d="M159.641 0H0.697205V20.1359H159.641V0Z" fill="white"/>
</mask>
<g mask="url(#mask13_123_64184)">
<mask id="mask14_123_64184" style="mask-type:luminance" maskUnits="userSpaceOnUse" x="0" y="0" width="160" height="21">
<path d="M159.641 0H0.697205V20.1359H159.641V0Z" fill="white"/>
</mask>
<g mask="url(#mask14_123_64184)">
<mask id="mask15_123_64184" style="mask-type:luminance" maskUnits="userSpaceOnUse" x="0" y="0" width="160" height="21">
<path d="M159.641 0H0.697205V20.1359H159.641V0Z" fill="white"/>
</mask>
<g mask="url(#mask15_123_64184)">
<path d="M2.63019 13.9075V0.298627H4.0874V13.7795C4.0874 15.5712 3.83739 16.9648 3.33736 17.9603C2.83734 18.9557 2.07301 19.6809 1.04439 20.1359L0.980103 20.0293C1.55156 19.6311 1.97015 18.9599 2.23588 18.0157C2.49875 17.0686 2.63019 15.6992 2.63019 13.9075ZM8.58765 7.76426C8.58765 6.66932 8.78337 5.64832 9.17481 4.70123C9.56912 3.75701 10.1191 2.93223 10.8249 2.2269C11.5335 1.52442 12.3621 0.976937 13.3107 0.584453C14.2622 0.194818 15.288 0 16.388 0C17.4881 0 18.5124 0.194818 19.4611 0.584453C20.4125 0.976937 21.2411 1.52442 21.9469 2.2269C22.6555 2.93223 23.2055 3.75701 23.597 4.70123C23.9913 5.64832 24.1884 6.66932 24.1884 7.76426C24.1884 8.85926 23.9913 9.87884 23.597 10.8231C23.2055 11.7702 22.6555 12.5949 21.9469 13.2974C21.2411 14.0027 20.4125 14.5502 19.4611 14.9398C18.5124 15.3323 17.4881 15.5286 16.388 15.5286C15.288 15.5286 14.2622 15.3323 13.3107 14.9398C12.3621 14.5502 11.5335 14.0027 10.8249 13.2974C10.1191 12.5949 9.56912 11.7702 9.17481 10.8231C8.78337 9.87884 8.58765 8.85926 8.58765 7.76426ZM10.2163 7.76426C10.2163 9.21474 10.4735 10.4832 10.9878 11.5696C11.5021 12.6589 12.2235 13.505 13.1522 14.1079C14.0807 14.7137 15.1594 15.0166 16.388 15.0166C17.6167 15.0166 18.6953 14.7137 19.6239 14.1079C20.5525 13.505 21.274 12.6561 21.7883 11.5611C22.3026 10.4662 22.5598 9.20053 22.5598 7.76426C22.5598 6.32805 22.3026 5.06527 21.7883 3.976C21.274 2.88957 20.5525 2.04062 19.6239 1.42914C18.6953 0.817668 17.6167 0.511931 16.388 0.511931C15.1594 0.511931 14.0836 0.8134 13.1607 1.41634C12.2407 2.02213 11.5192 2.86824 10.9963 3.95467C10.4763 5.04394 10.2163 6.31379 10.2163 7.76426ZM28.4744 9.25742V0.298627H29.9316V9.30011C29.9316 11.0207 30.3559 12.3603 31.2045 13.3187C32.056 14.2801 33.2532 14.7607 34.7961 14.7607C35.7676 14.7607 36.6134 14.5715 37.3334 14.1933C38.0563 13.8179 38.6135 13.296 39.0049 12.6276C39.3992 11.9593 39.5821 11.1914 39.5535 10.3239L39.1892 0.298627H40.6464L40.2821 10.3239C40.225 12.0304 39.7135 13.3244 38.7477 14.2061C37.7848 15.0877 36.4105 15.5286 34.6247 15.5286C32.696 15.5286 31.1888 14.9697 30.103 13.852C29.0173 12.7371 28.4744 11.2056 28.4744 9.25742ZM45.7853 15.2299V0.298627H48.6568C50.1712 0.298627 51.347 0.615737 52.1841 1.24996C53.0185 1.88135 53.4357 2.76585 53.4357 3.90347C53.4357 4.78513 53.1758 5.51747 52.6556 6.10053C52.1327 6.68353 51.3784 7.07458 50.3926 7.27368V7.40168C51.3355 7.58653 52.107 8.02737 52.707 8.72416C53.3071 9.42095 53.7573 10.2813 54.0571 11.3052C54.3288 12.2437 54.5972 12.9717 54.863 13.4894C55.1256 14.0098 55.4185 14.3838 55.7417 14.6114C56.0617 14.8389 56.4428 15.0024 56.8856 15.1019V15.2299H56.0074C55.3786 15.2299 54.8614 15.1162 54.4558 14.8887C54.047 14.6612 53.6999 14.2772 53.414 13.7368C53.1285 13.1964 52.857 12.4499 52.5999 11.4971C52.1856 10.0324 51.6356 8.99437 50.9498 8.38289C50.264 7.77142 49.4283 7.46568 48.4425 7.46568H48.3139V7.08174H48.4425C50.7426 7.08174 51.8927 6.02942 51.8927 3.92481C51.8927 1.84864 50.8141 0.810558 48.6568 0.810558H47.2425V15.2299H45.7853ZM60.6788 15.2299H59.2218L59.7576 0H60.0144L70.7939 12.9689H70.922L70.451 0.298627H71.908L71.3722 15.5286H71.115L60.3359 2.55965H60.2073L60.6788 15.2299ZM83.7587 15.2299H77.1583V0.298627H83.6944V1.34382L79.9442 0.853216C79.2872 0.767895 78.8439 0.725237 78.6153 0.725237V7.231C78.8013 7.231 79.2441 7.20968 79.9442 7.16705L83.4589 6.95374V7.93495L79.9442 7.72163C79.2441 7.67895 78.8013 7.65763 78.6153 7.65763V14.8033C78.8726 14.8033 79.3228 14.7607 79.9654 14.6754L83.7587 14.1847V15.2299ZM93.0163 15.2299H91.4732V8.91616L86.1587 0.298627H87.7874L92.5661 8.10558H92.6948L96.5092 0.298627H98.1379L93.0163 8.61753V15.2299Z" fill="#444FAE"/>
<path d="M110.182 15.2299H106.71V0.298627H109.689C111.231 0.298627 112.432 0.618584 113.288 1.2585C114.146 1.89841 114.574 2.78718 114.574 3.92481C114.574 4.76381 114.325 5.47768 113.824 6.06637C113.325 6.65795 112.625 7.06037 111.724 7.27368V7.40168C112.953 7.55811 113.913 7.98042 114.605 8.66868C115.299 9.35979 115.646 10.2315 115.646 11.2838C115.646 12.521 115.168 13.4879 114.21 14.1847C113.253 14.8815 111.91 15.2299 110.182 15.2299ZM109.71 0.810558H108.167V7.20968H109.689C111.946 7.20968 113.074 6.14316 113.074 4.01013C113.074 1.87708 111.953 0.810558 109.71 0.810558ZM110.182 7.72163H108.167V14.718H110.182C112.796 14.718 114.103 13.5519 114.103 11.2198C114.103 8.88768 112.796 7.72163 110.182 7.72163ZM121.389 15.2299H119.932V0.298627H121.389V15.2299ZM131.843 15.2299H130.385V0.725237C130.171 0.725237 129.728 0.767895 129.057 0.853216L124.856 1.38648V0.298627H137.371V1.38648L133.171 0.853216C132.5 0.767895 132.057 0.725237 131.843 0.725237V15.2299ZM147.443 15.2299H140.843V0.298627H147.379V1.34382L143.629 0.853216C142.971 0.767895 142.529 0.725237 142.3 0.725237V7.231C142.486 7.231 142.929 7.20968 143.629 7.16705L147.143 6.95374V7.93495L143.629 7.72163C142.929 7.67895 142.486 7.65763 142.3 7.65763V14.8033C142.557 14.8033 143.008 14.7607 143.65 14.6754L147.443 14.1847V15.2299ZM150.637 14.7607L150.765 13.4808H150.893C151.451 13.9643 152.079 14.3412 152.779 14.6114C153.479 14.8815 154.172 15.0166 154.858 15.0166C155.829 15.0166 156.615 14.7493 157.215 14.2146C157.815 13.6828 158.115 12.9689 158.115 12.0731C158.115 11.5753 158.004 11.1132 157.781 10.6866C157.561 10.2599 157.197 9.82621 156.688 9.38542C156.182 8.94458 155.486 8.46821 154.601 7.95626C153.986 7.60074 153.401 7.22674 152.844 6.83426C152.287 6.44463 151.829 5.98958 151.472 5.46911C151.115 4.95151 150.936 4.33008 150.936 3.60485C150.936 2.52411 151.329 1.6524 152.115 0.989732C152.901 0.329911 153.936 0 155.222 0C155.794 0 156.408 0.0611474 157.065 0.183442C157.722 0.302893 158.229 0.45505 158.587 0.639916L158.48 1.83442H158.351C157.537 0.952763 156.494 0.511932 155.222 0.511932C154.308 0.511932 153.572 0.7423 153.015 1.20304C152.458 1.66662 152.179 2.28947 152.179 3.07158C152.179 3.65462 152.332 4.15517 152.638 4.57325C152.947 4.99417 153.344 5.371 153.829 5.70379C154.315 6.03937 154.836 6.36358 155.393 6.67642C156.037 7.04616 156.661 7.43721 157.267 7.84963C157.875 8.262 158.376 8.75542 158.767 9.32995C159.161 9.90726 159.358 10.6297 159.358 11.4971C159.358 12.2935 159.172 12.9931 158.801 13.5961C158.43 14.2018 157.904 14.6754 157.224 15.0166C156.546 15.3579 155.758 15.5286 154.858 15.5286C154.287 15.5286 153.615 15.4575 152.844 15.3153C152.072 15.1731 151.337 14.9882 150.637 14.7607Z" fill="#87C0CD"/>
</g>
</g>
</g>
</g>
</g>
</g>
</g>
</g>
</g>
<defs>
<clipPath id="clip0_123_64184">
<rect width="160" height="20" fill="white"/>
</clipPath>
</defs>
</svg>
