<svg width="24" height="24" viewBox="0 0 24 24" fill="none" xmlns="http://www.w3.org/2000/svg">
<path d="M20.4201 4.57999C19.9184 4.07656 19.3223 3.67713 18.6659 3.40458C18.0095 3.13203 17.3058 2.99173 16.5951 2.99173C15.8844 2.99173 15.1806 3.13203 14.5243 3.40458C13.8679 3.67713 13.2718 4.07656 12.7701 4.57999L12.0001 5.35999L11.2301 4.57999C10.7284 4.07656 10.1323 3.67713 9.47591 3.40458C8.81953 3.13203 8.1158 2.99173 7.40509 2.99173C6.69437 2.99173 5.99065 3.13203 5.33427 3.40458C4.67789 3.67713 4.08176 4.07656 3.58009 4.57999C1.46009 6.69999 1.33009 10.28 4.00009 13L12.0001 21L20.0001 13C22.6701 10.28 22.5401 6.69999 20.4201 4.57999Z" stroke="#D65F5F" stroke-width="2" stroke-linecap="round" stroke-linejoin="round"/>
</svg>